<svg width="43" height="43" viewBox="0 0 43 43" fill="none" xmlns="http://www.w3.org/2000/svg">
<path d="M25.4998 21.3342C29.4998 19.3174 34.4558 21.0059 36.6552 25.8715C39.9561 33.1738 33.0235 41.2653 25.5152 41.495C25.2991 41.5016 25.0716 41.4648 24.8719 41.3817C19.378 39.0955 32.4435 30.9821 28.1636 26.5963" stroke="#141B34" stroke-width="3" stroke-linecap="round"/>
<path d="M22.018 23.5C23.0057 19.7765 21.4408 16.017 17.4901 16.9479C15.0977 17.5116 14.5326 19.2664 13.0859 19.4132C11.962 19.5273 11.2686 18.244 11.5706 17.1712C13.718 9.54431 28.4998 9.56248 28.4998 17.5146" stroke="#141B34" stroke-width="3" stroke-linecap="round"/>
<path d="M25.5015 35.3169C21.1138 37.4987 11.7533 38.7283 7.5371 35.6596C6.38139 34.8184 4.89682 35.0729 3.54736 35.0729C0.276321 35.0729 1.1996 28.6987 4.3748 29.9268C5.49784 30.3611 7.53996 30.9251 9.06293 30.0621C18.8659 24.5067 29.4891 23.5479 32.9926 8.9279C34.552 2.42046 35.0009 1.5 37.6056 1.5C40.2103 1.5 43.3384 7.50233 40.1527 17.4169C39.3112 20.0357 38.316 22.6545 36.8927 25.0982" stroke="#141B34" stroke-width="3" stroke-linecap="round"/>
</svg>
