<svg width="20" height="20" viewBox="0 0 20 20" fill="none" xmlns="http://www.w3.org/2000/svg">
<path fill-rule="evenodd" clip-rule="evenodd" d="M10.1592 1.37088L9.54932 1.80743L8.96882 1.33254C9.11663 1.15186 9.34015 1.05031 9.57346 1.05782C9.80678 1.06534 10.0233 1.18107 10.1592 1.37088ZM9.50784 3.10465C9.48874 3.13112 9.46931 3.15816 9.44956 3.18576C9.03466 3.76537 8.48159 4.5864 7.92937 5.5507C6.80922 7.50677 5.75775 9.94179 5.75775 12.1174C5.75775 13.2152 6.13614 14.4479 6.821 15.391C7.49888 16.3246 8.42888 16.9189 9.54932 16.9189C10.645 16.9189 11.4193 16.3519 11.9559 15.4486C12.508 14.5194 12.7732 13.2736 12.7732 12.1174C12.7732 9.91694 11.8447 7.46762 10.8657 5.51398C10.382 4.5486 9.89771 3.727 9.53463 3.14732C9.52563 3.13295 9.5167 3.11872 9.50784 3.10465ZM9.54932 1.80743C8.96882 1.33254 8.96895 1.33238 8.96882 1.33254L8.96721 1.33452L8.96396 1.33851L8.95261 1.35252L8.91133 1.40409C8.87583 1.44873 8.8247 1.51367 8.76018 1.59737C8.63117 1.76472 8.44842 2.0073 8.22984 2.31266C7.7932 2.92266 7.21088 3.78691 6.6277 4.80529C5.47706 6.81459 4.25775 9.53454 4.25775 12.1174C4.25775 13.5225 4.73091 15.0655 5.60722 16.2724C6.4905 17.4888 7.83129 18.4189 9.54932 18.4189C11.2921 18.4189 12.5048 17.4616 13.2455 16.2148C13.9708 14.994 14.2732 13.464 14.2732 12.1174C14.2732 9.55939 13.2148 6.85373 12.2068 4.84201C11.6971 3.82471 11.1879 2.96103 10.8059 2.35109C10.6146 2.0458 10.4547 1.80324 10.3418 1.63587C10.2854 1.55216 10.2406 1.48719 10.2095 1.44252L10.1734 1.39092L10.1635 1.37688L10.1606 1.37287L10.1592 1.37088C10.1591 1.37072 10.1592 1.37088 9.54932 1.80743Z" fill="black"/>
<path d="M0.75 11.0599H1.5H0.75ZM8.04897 0.75L8.79873 0.768937C8.80601 0.480623 8.64733 0.213673 8.39057 0.0823124C8.13382 -0.0490484 7.82449 -0.0215476 7.59493 0.153048L8.04897 0.75ZM6.58914 15.8615C3.40163 15.8615 1.5 13.198 1.5 11.0599H0C0 13.9276 2.47775 17.3615 6.58914 17.3615V15.8615ZM1.5 11.0599C1.5 10.0539 1.88947 8.94746 2.54058 7.81551C3.18751 6.69085 4.06069 5.5962 4.95134 4.62845C5.8397 3.6632 6.7306 2.84016 7.40053 2.25782C7.73497 1.96711 8.01301 1.73754 8.2064 1.58144C8.30307 1.50342 8.37849 1.44383 8.42912 1.40422C8.45444 1.38442 8.47355 1.36961 8.48601 1.36C8.49224 1.3552 8.49681 1.35169 8.49966 1.34951C8.50109 1.34842 8.50208 1.34765 8.50264 1.34723C8.50292 1.34701 8.50309 1.34688 8.50315 1.34684C8.50318 1.34682 8.50315 1.34684 8.50316 1.34683C8.5031 1.34688 8.503 1.34695 8.04897 0.75C7.59493 0.153048 7.59478 0.153161 7.59461 0.153295C7.59451 0.153368 7.59431 0.153523 7.59412 0.153669C7.59373 0.153961 7.59324 0.154338 7.59263 0.154799C7.59143 0.155722 7.58978 0.156982 7.58769 0.158577C7.58353 0.161767 7.57763 0.166296 7.57005 0.172141C7.55489 0.183828 7.53302 0.200778 7.50487 0.222796C7.44859 0.266828 7.3672 0.331156 7.26428 0.414226C7.0585 0.580317 6.76632 0.82163 6.41647 1.12573C5.71786 1.733 4.78401 2.59524 3.84763 3.61267C2.91354 4.62761 1.96198 5.81304 1.24034 7.0676C0.522897 8.31487 0 9.68677 0 11.0599H1.5ZM8.04897 0.75C7.29921 0.731063 7.2992 0.731326 7.29919 0.731592C7.29919 0.731686 7.29919 0.731956 7.29918 0.732144C7.29917 0.732519 7.29916 0.732908 7.29915 0.733312C7.29914 0.734121 7.29912 0.734988 7.2991 0.735914C7.29906 0.737766 7.29903 0.739851 7.29899 0.74217C7.29893 0.746807 7.29888 0.752373 7.29886 0.758856C7.29882 0.771822 7.29892 0.788455 7.29933 0.808643C7.30015 0.849016 7.30221 0.903622 7.30689 0.971562C7.31623 1.10744 7.33604 1.2967 7.37733 1.53212C7.45997 2.00328 7.62846 2.65815 7.9702 3.43855L9.34423 2.83685C9.05388 2.17381 8.91824 1.63483 8.85478 1.27299C8.82302 1.09192 8.80928 0.9549 8.80335 0.868625C8.80038 0.825488 8.79937 0.795046 8.79902 0.778143C8.79885 0.769692 8.79885 0.764628 8.79885 0.763057C8.79885 0.762272 8.79886 0.76236 8.79884 0.763336C8.79884 0.763823 8.79883 0.764533 8.79881 0.765466C8.7988 0.765932 8.79879 0.766455 8.79877 0.767033C8.79877 0.767322 8.79876 0.767625 8.79875 0.767943C8.79875 0.768101 8.79874 0.76835 8.79874 0.768429C8.79874 0.768681 8.79873 0.768937 8.04897 0.75Z" fill="black"/>
<path d="M12.0592 0.75L12.5381 0.172812C12.3741 0.0367243 12.1599 -0.0231587 11.9491 0.0081231C11.7383 0.0394049 11.5508 0.158897 11.4333 0.336747L12.0592 0.75ZM18 11.0599C18 12.0663 17.417 13.4041 16.3697 14.4391C15.3391 15.4576 13.9522 16.092 12.4141 15.8692L12.1991 17.3537C14.3105 17.6596 16.1453 16.7697 17.424 15.506C18.686 14.2588 19.5 12.5565 19.5 11.0599H18ZM12.0592 0.75C11.5803 1.32719 11.5802 1.32711 11.5801 1.32705C11.5802 1.32706 11.5801 1.32703 11.5801 1.32705C11.5802 1.32708 11.5803 1.3272 11.5806 1.32741C11.5811 1.32782 11.5819 1.32856 11.5832 1.32963C11.5858 1.33178 11.5899 1.33524 11.5956 1.34001C11.6069 1.34954 11.6244 1.36427 11.6475 1.38399C11.6937 1.42345 11.7627 1.48287 11.8511 1.56072C12.028 1.71648 12.2824 1.94568 12.5886 2.236C13.2019 2.81754 14.0177 3.63973 14.8313 4.60418C15.6469 5.57086 16.4474 6.66544 17.0411 7.79137C17.638 8.92332 18 10.0386 18 11.0599H19.5C19.5 9.70212 19.0256 8.339 18.368 7.09174C17.7071 5.83845 16.835 4.65294 15.9778 3.63694C15.1188 2.61871 14.262 1.75562 13.6207 1.14755C13.2996 0.843062 13.0314 0.601381 12.8423 0.434947C12.7478 0.351705 12.673 0.287212 12.6212 0.243021C12.5953 0.220923 12.5752 0.203895 12.5612 0.192131C12.5542 0.186248 12.5488 0.181681 12.5449 0.178453C12.543 0.17684 12.5414 0.17556 12.5403 0.174619C12.5397 0.174149 12.5393 0.173762 12.5389 0.173461C12.5387 0.17331 12.5385 0.173148 12.5384 0.173073C12.5383 0.172932 12.5381 0.172812 12.0592 0.75ZM11.1379 3.75716C11.5712 2.97536 11.9597 2.32433 12.2393 1.86958C12.379 1.6423 12.4914 1.4643 12.5684 1.3438C12.6069 1.28355 12.6366 1.23769 12.6563 1.20726C12.6662 1.19204 12.6737 1.18068 12.6785 1.1733C12.6809 1.16961 12.6827 1.16692 12.6838 1.16524C12.6843 1.1644 12.6847 1.16381 12.6849 1.16348C12.685 1.16331 12.6851 1.16321 12.6851 1.16317C12.6852 1.16316 12.6852 1.16315 12.6851 1.16317C12.6851 1.16317 12.6851 1.16319 12.6851 1.1632C12.6851 1.16322 12.6851 1.16325 12.0592 0.75C11.4333 0.336747 11.4333 0.336785 11.4333 0.336827C11.4333 0.336847 11.4332 0.336893 11.4332 0.336931C11.4332 0.337009 11.4331 0.337103 11.433 0.337212C11.4329 0.337432 11.4327 0.337716 11.4325 0.338064C11.432 0.33876 11.4314 0.339714 11.4306 0.340922C11.429 0.343338 11.4267 0.346774 11.4238 0.351214C11.418 0.360092 11.4096 0.372986 11.3987 0.389765C11.3769 0.423323 11.3451 0.472431 11.3045 0.536058C11.2231 0.663299 11.1061 0.848686 10.9615 1.08396C10.6723 1.55432 10.2721 2.22507 9.82596 3.02999L11.1379 3.75716Z" fill="black"/>
<path d="M9.26538 17.6689L6.8842 18.7067" stroke="black" stroke-width="1.5" stroke-linecap="round"/>
<path d="M9.87366 17.6689L12.3882 18.7067" stroke="black" stroke-width="1.5" stroke-linecap="round"/>
<path d="M9.56958 19.1623L9.56958 17.8707" stroke="black" stroke-width="1.5" stroke-linecap="round"/>
</svg>
