<svg width="92" height="92" viewBox="0 0 92 92" fill="none" xmlns="http://www.w3.org/2000/svg">
<rect width="91.5618" height="91.5618" fill="#00D95F"/>
<path d="M22.8906 66.9763L26.1753 54.7631C23.5263 50.0055 22.6847 44.4537 23.8049 39.1265C24.9251 33.7993 27.932 29.0542 32.2738 25.7617C36.6156 22.4692 42.0011 20.8503 47.4421 21.202C52.883 21.5538 58.0144 23.8526 61.8946 27.6766C65.7749 31.5006 68.1437 36.5933 68.5664 42.0202C68.989 47.4471 67.4373 52.8441 64.1958 57.221C60.9543 61.5979 56.2405 64.6609 50.9195 65.8481C45.5984 67.0353 40.027 66.267 35.2276 63.6842L22.8906 66.9763ZM35.8224 59.1139L36.5854 59.5658C40.0617 61.6229 44.122 62.4741 48.1336 61.9869C52.1451 61.4997 55.8825 59.7013 58.7634 56.8721C61.6443 54.0429 63.5068 50.3417 64.0607 46.3454C64.6146 42.3491 63.8288 38.282 61.8257 34.7781C59.8226 31.2742 56.7148 28.5302 52.9865 26.9738C49.2582 25.4173 45.119 25.1359 41.2137 26.1732C37.3085 27.2106 33.8567 29.5085 31.3962 32.7089C28.9357 35.9093 27.6047 39.8324 27.6107 43.8668C27.6075 47.212 28.5341 50.4924 30.2876 53.343L30.7661 54.1305L28.9298 60.9472L35.8224 59.1139Z" fill="white"/>
<path fill-rule="evenodd" clip-rule="evenodd" d="M54.3404 47.0028C53.8931 46.6427 53.3694 46.3892 52.8091 46.2616C52.2489 46.1341 51.6669 46.1359 51.1074 46.2669C50.2669 46.6155 49.7237 47.9324 49.1806 48.5908C49.0661 48.7486 48.8978 48.8593 48.7073 48.9021C48.5168 48.9449 48.3173 48.9168 48.1461 48.8232C45.0687 47.6199 42.4893 45.4132 40.8267 42.5617C40.6848 42.3837 40.6177 42.1578 40.6394 41.9314C40.6612 41.7051 40.77 41.4959 40.943 41.3481C41.5488 40.7494 41.9936 40.0078 42.2362 39.1921C42.2901 38.2922 42.0836 37.3959 41.6414 36.61C41.2995 35.5082 40.6488 34.5271 39.7663 33.7826C39.3111 33.5782 38.8063 33.5097 38.313 33.5853C37.8197 33.6609 37.3588 33.8774 36.9859 34.2087C36.3386 34.7662 35.8249 35.4616 35.4825 36.2436C35.14 37.0256 34.9777 37.8743 35.0074 38.7273C35.0093 39.2063 35.0702 39.6832 35.1884 40.1474C35.4887 41.2628 35.9505 42.3283 36.5592 43.3105C36.9983 44.0628 37.4775 44.7911 37.9946 45.4923C39.6751 47.7955 41.7876 49.751 44.2148 51.2503C45.4328 52.0122 46.7345 52.6317 48.0943 53.0965C49.5069 53.7358 51.0665 53.9811 52.6075 53.8066C53.4855 53.6739 54.3174 53.3278 55.03 52.7988C55.7426 52.2697 56.314 51.5739 56.694 50.7726C56.9172 50.2886 56.985 49.7474 56.8879 49.2234C56.6552 48.1518 55.2197 47.5192 54.3404 47.0028Z" fill="white"/>
</svg>
